<svg width="80" height="60" xmlns="http://www.w3.org/2000/svg">
  <defs>
    <linearGradient id="partnerGradient" x1="0%" y1="0%" x2="100%" y2="100%">
      <stop offset="0%" style="stop-color:#00d4aa;stop-opacity:1" />
      <stop offset="100%" style="stop-color:#16a085;stop-opacity:1" />
    </linearGradient>
  </defs>
  
  <!-- Background -->
  <rect width="80" height="60" rx="8" fill="url(#partnerGradient)"/>
  
  <!-- Hedera H symbol -->
  <path d="M20 12 L20 28 M28 12 L28 28 M20 20 L28 20" stroke="white" stroke-width="2.5" stroke-linecap="round"/>
  
  <!-- Partnership handshake -->
  <path d="M35 18 Q40 15 45 18 Q50 21 52 25" stroke="white" stroke-width="2" fill="none" stroke-linecap="round"/>
  <circle cx="35" cy="18" r="2" fill="white"/>
  <circle cx="52" cy="25" r="2" fill="white"/>
  
  <!-- Partnership badge -->
  <circle cx="55" cy="15" r="6" fill="white"/>
  <path d="M52 15 L54 17 L58 13" stroke="#00d4aa" stroke-width="1.5" fill="none" stroke-linecap="round"/>
  
  <!-- Network connection -->
  <circle cx="15" cy="35" r="2" fill="white"/>
  <circle cx="25" cy="38" r="2" fill="white"/>
  <circle cx="35" cy="35" r="2" fill="white"/>
  <circle cx="45" cy="38" r="2" fill="white"/>
  <circle cx="55" cy="35" r="2" fill="white"/>
  <circle cx="65" cy="38" r="2" fill="white"/>
  
  <!-- Connection lines -->
  <line x1="17" y1="35" x2="23" y2="38" stroke="white" stroke-width="1"/>
  <line x1="27" y1="38" x2="33" y2="35" stroke="white" stroke-width="1"/>
  <line x1="37" y1="35" x2="43" y2="38" stroke="white" stroke-width="1"/>
  <line x1="47" y1="38" x2="53" y2="35" stroke="white" stroke-width="1"/>
  <line x1="57" y1="35" x2="63" y2="38" stroke="white" stroke-width="1"/>
  
  <!-- Text -->
  <text x="40" y="50" text-anchor="middle" fill="white" font-family="Arial" font-size="7" font-weight="bold">Official</text>
  <text x="40" y="56" text-anchor="middle" fill="white" font-family="Arial" font-size="7" font-weight="bold">Partner</text>
</svg>