<svg width="80" height="60" xmlns="http://www.w3.org/2000/svg">
  <defs>
    <linearGradient id="hederaGradient" x1="0%" y1="0%" x2="100%" y2="100%">
      <stop offset="0%" style="stop-color:#00d4aa;stop-opacity:1" />
      <stop offset="100%" style="stop-color:#00b894;stop-opacity:1" />
    </linearGradient>
  </defs>
  
  <!-- Background -->
  <rect width="80" height="60" rx="8" fill="url(#hederaGradient)"/>
  
  <!-- Hedera H symbol -->
  <path d="M25 12 L25 32 M35 12 L35 32 M25 22 L35 22" stroke="white" stroke-width="3" stroke-linecap="round"/>
  
  <!-- Council crown -->
  <path d="M45 15 L50 10 L55 15 L52 20 L48 20 Z" fill="white"/>
  <circle cx="48" cy="18" r="1" fill="#00d4aa"/>
  <circle cx="52" cy="18" r="1" fill="#00d4aa"/>
  
  <!-- Network nodes -->
  <circle cx="20" cy="35" r="2" fill="white"/>
  <circle cx="30" cy="38" r="2" fill="white"/>
  <circle cx="40" cy="35" r="2" fill="white"/>
  <circle cx="50" cy="38" r="2" fill="white"/>
  <circle cx="60" cy="35" r="2" fill="white"/>
  
  <!-- Connections -->
  <line x1="22" y1="35" x2="28" y2="38" stroke="white" stroke-width="1"/>
  <line x1="32" y1="38" x2="38" y2="35" stroke="white" stroke-width="1"/>
  <line x1="42" y1="35" x2="48" y2="38" stroke="white" stroke-width="1"/>
  <line x1="52" y1="38" x2="58" y2="35" stroke="white" stroke-width="1"/>
  
  <!-- Text -->
  <text x="40" y="50" text-anchor="middle" fill="white" font-family="Arial" font-size="6" font-weight="bold">Governing</text>
  <text x="40" y="56" text-anchor="middle" fill="white" font-family="Arial" font-size="6" font-weight="bold">Council</text>
</svg>